<svg width="32" height="32" xmlns="http://www.w3.org/2000/svg" xmlns:xlink="http://www.w3.org/1999/xlink" xml:space="preserve" overflow="hidden"><defs><clipPath id="clip0"><path d="M816.329 255.309 825.46 246.178 834.54 255.257 825.408 264.389Z" fill-rule="evenodd" clip-rule="evenodd"/></clipPath><clipPath id="clip1"><path d="M816.329 255.309 825.46 246.178 834.54 255.257 825.408 264.389Z" fill-rule="evenodd" clip-rule="evenodd"/></clipPath><clipPath id="clip2"><path d="M816.329 255.309 825.46 246.178 834.54 255.257 825.408 264.389Z" fill-rule="evenodd" clip-rule="evenodd"/></clipPath><clipPath id="clip3"><path d="M821.461 255.836 830.592 246.705 839.671 255.784 830.54 264.916Z" fill-rule="evenodd" clip-rule="evenodd"/></clipPath><clipPath id="clip4"><path d="M821.461 255.836 830.592 246.705 839.671 255.784 830.54 264.916Z" fill-rule="evenodd" clip-rule="evenodd"/></clipPath><clipPath id="clip5"><path d="M821.461 255.836 830.592 246.705 839.671 255.784 830.54 264.916Z" fill-rule="evenodd" clip-rule="evenodd"/></clipPath></defs><g transform="translate(-812 -244)"><path d="M828 244.891C833.168 244.891 837.357 249.124 837.357 254.344 837.357 254.671 837.341 254.993 837.309 255.311L837.275 255.534 837.24 255.766 834.551 261.089 828 274.056 821.449 261.089 818.76 255.766 818.725 255.534 818.691 255.311C818.659 254.993 818.643 254.671 818.643 254.344 818.643 249.124 822.832 244.891 828 244.891Z" stroke="#C00000" stroke-width="1.57806" stroke-miterlimit="8" fill="none" fill-rule="evenodd"/><g clip-path="url(#clip0)"><g clip-path="url(#clip1)"><g clip-path="url(#clip2)"><path d="M11.877 2.568 9.17527 5.25639C9.09503 5.33665 8.97465 5.33665 8.8944 5.25639 8.81416 5.17614 8.81416 5.05576 8.8944 4.97552L11.5962 2.27376 11.2217 1.89926 8.5199 4.60101C8.43966 4.68126 8.31927 4.68126 8.23903 4.60101 8.15877 4.52077 8.15877 4.40039 8.23903 4.32014L10.9408 1.61838 10.5663 1.24388 7.85114 3.93225C7.7709 4.01252 7.65053 4.01252 7.57027 3.93225 7.49003 3.85201 7.49003 3.73163 7.57027 3.65138L10.272 0.963004 10.0313 0.722252C10.0313 0.722252 8.42627 1.76551 7.30277 2.88901 6.62064 3.57114 6.39328 4.23988 6.48689 4.81501 6.48689 4.81501 6.60727 5.35002 6.36652 5.65764L0.963004 10.7535C0.655376 11.0612 0.655376 11.5694 0.963004 11.8904 1.27063 12.198 1.77888 12.198 2.09989 11.8904L7.19577 6.48689C7.50339 6.24614 8.0384 6.36652 8.0384 6.36652 8.61353 6.46015 9.28227 6.23277 9.9644 5.55064 10.9809 4.50738 12.1178 2.80875 12.1178 2.80875L11.877 2.568Z" fill="#C00000" transform="matrix(0.711173 -0.711173 0.707107 0.707107 816.329 255.309)"/></g></g></g><g clip-path="url(#clip3)"><g clip-path="url(#clip4)"><g clip-path="url(#clip5)"><path d="M11.449 1.37763C10.7268 0.642001 8.78741 1.391 7.6639 2.51451 6.98177 3.19664 6.75439 3.86538 6.84802 4.44051 6.84802 4.44051 6.96839 4.97552 6.72764 5.28314L1.32413 10.379C1.0165 10.6867 1.0165 11.1949 1.32413 11.5159 1.63176 11.8235 2.14001 11.8235 2.461 11.5159L7.5569 6.11239C7.86453 5.87164 8.39952 5.99202 8.39952 5.99202 8.97465 6.08565 9.6434 5.85827 10.3255 5.17614 11.4357 4.03927 12.1847 2.11326 11.449 1.37763Z" fill="#C00000" transform="matrix(0.711173 -0.711173 0.707107 0.707107 821.461 255.836)"/></g></g></g></g></svg>