<svg width="70" height="109" xmlns="http://www.w3.org/2000/svg" xmlns:xlink="http://www.w3.org/1999/xlink" xml:space="preserve" overflow="hidden"><g transform="translate(-2811 -839)"><path d="M2846.35 842.394C2864.02 842.394 2878.35 856.906 2878.35 874.808 2878.35 875.927 2878.29 877.032 2878.18 878.122L2878.07 878.888 2877.95 879.683 2868.75 897.934 2846.35 942.394 2823.95 897.934 2814.75 879.683 2814.63 878.888 2814.51 878.122C2814.41 877.032 2814.35 875.927 2814.35 874.808 2814.35 856.906 2828.68 842.394 2846.35 842.394Z" stroke="#FFFFFF" stroke-width="5.42457" stroke-miterlimit="8" fill="#FFFFFF" fill-rule="evenodd"/><path d="M2841.28 854.524 2841.21 867.664C2841.21 868.055 2840.91 868.349 2840.52 868.35 2840.13 868.351 2839.84 868.059 2839.84 867.667L2839.88 854.496 2838.05 854.501 2838.01 867.673C2838.01 868.064 2837.72 868.358 2837.32 868.36 2836.93 868.361 2836.64 868.068 2836.64 867.677L2836.68 854.505 2834.85 854.51 2834.75 867.682C2834.75 868.073 2834.46 868.368 2834.06 868.369 2833.67 868.37 2833.38 868.077 2833.38 867.686L2833.45 854.547 2832.28 854.55C2832.28 854.55 2830.89 861.01 2830.87 866.487 2830.86 869.813 2831.93 871.994 2833.56 873.163 2833.56 873.163 2835.16 874.169 2835.32 875.506L2834.49 901.102C2834.49 902.601 2835.72 903.837 2837.26 903.865 2838.76 903.861 2840 902.618 2840.04 901.086L2839.36 875.494C2839.53 874.157 2841.13 873.142 2841.13 873.142 2842.76 871.963 2843.84 869.776 2843.85 866.45 2843.8 861.429 2842.45 854.521 2842.45 854.521L2841.28 854.524Z" stroke="#FFFFFF" stroke-width="0.0700131" stroke-miterlimit="8" fill="#FFFFFF" fill-rule="evenodd"/><path d="M2855.05 854.431C2851.49 854.409 2848.57 860.971 2848.56 866.448 2848.55 869.773 2849.62 871.955 2851.25 873.124 2851.25 873.124 2852.84 874.13 2853 875.467L2852.18 901.063C2852.17 902.562 2853.41 903.798 2854.94 903.826 2856.44 903.822 2857.68 902.579 2857.72 901.047L2857.04 875.455C2857.21 874.118 2858.81 873.102 2858.81 873.102 2860.44 871.924 2861.53 869.736 2861.53 866.411 2861.49 860.933 2858.63 854.421 2855.05 854.431Z" stroke="#FFFFFF" stroke-width="0.0700131" stroke-miterlimit="8" fill="#FFFFFF" fill-rule="evenodd"/></g></svg>