<svg width="63" height="101" xmlns="http://www.w3.org/2000/svg" xmlns:xlink="http://www.w3.org/1999/xlink" xml:space="preserve" overflow="hidden"><g transform="translate(-2870 -869)"><path d="M2891.43 870.607 2891.29 896.886C2891.29 897.668 2890.7 898.257 2889.92 898.259 2889.14 898.262 2888.55 897.676 2888.56 896.894L2888.63 870.55 2884.98 870.56 2884.9 896.904C2884.9 897.687 2884.31 898.275 2883.53 898.277 2882.75 898.28 2882.16 897.695 2882.17 896.912L2882.24 870.568 2878.59 870.579 2878.38 896.923C2878.38 897.705 2877.79 898.294 2877.01 898.296 2876.23 898.298 2875.64 897.713 2875.64 896.931L2875.78 870.652 2873.44 870.659C2873.44 870.659 2870.66 883.577 2870.63 894.532 2870.61 901.183 2872.75 905.546 2876 907.885 2876 907.885 2879.19 909.897 2879.51 912.569L2877.87 963.762C2877.86 966.761 2880.33 969.232 2883.39 969.288 2886.39 969.28 2888.88 966.795 2888.95 963.73L2887.6 912.546C2887.93 909.872 2891.13 907.841 2891.13 907.841 2894.4 905.484 2896.56 901.109 2896.58 894.458 2896.48 884.417 2893.78 870.6 2893.78 870.6L2891.43 870.607Z" stroke="#FFFFFF" stroke-width="0.139665" stroke-miterlimit="8" fill="#FFFFFF" fill-rule="evenodd"/><path d="M2918.91 870.478C2911.8 870.433 2905.96 883.557 2905.93 894.512 2905.91 901.163 2908.05 905.526 2911.3 907.864 2911.3 907.864 2914.49 909.876 2914.81 912.549L2913.16 963.741C2913.15 966.741 2915.62 969.211 2918.69 969.268 2921.69 969.259 2924.17 966.774 2924.25 963.709L2922.89 912.526C2923.23 909.851 2926.43 907.821 2926.43 907.821 2929.7 905.464 2931.86 901.088 2931.88 894.437 2931.78 883.483 2926.08 870.458 2918.91 870.478Z" stroke="#FFFFFF" stroke-width="0.139665" stroke-miterlimit="8" fill="#FFFFFF" fill-rule="evenodd"/></g></svg>