<svg width="64" height="64" xmlns="http://www.w3.org/2000/svg" xmlns:xlink="http://www.w3.org/1999/xlink" xml:space="preserve" overflow="hidden"><defs><clipPath id="clip0"><path d="M820.658 266.619 838.921 248.356 857.079 266.514 838.816 284.777Z" fill-rule="evenodd" clip-rule="evenodd"/></clipPath><clipPath id="clip1"><path d="M820.658 266.619 838.921 248.356 857.079 266.514 838.816 284.777Z" fill-rule="evenodd" clip-rule="evenodd"/></clipPath><clipPath id="clip2"><path d="M820.658 266.619 838.921 248.356 857.079 266.514 838.816 284.777Z" fill-rule="evenodd" clip-rule="evenodd"/></clipPath><clipPath id="clip3"><path d="M830.921 267.673 849.184 249.41 867.343 267.568 849.08 285.831Z" fill-rule="evenodd" clip-rule="evenodd"/></clipPath><clipPath id="clip4"><path d="M830.921 267.673 849.184 249.41 867.343 267.568 849.08 285.831Z" fill-rule="evenodd" clip-rule="evenodd"/></clipPath><clipPath id="clip5"><path d="M830.921 267.673 849.184 249.41 867.343 267.568 849.08 285.831Z" fill-rule="evenodd" clip-rule="evenodd"/></clipPath></defs><g transform="translate(-812 -244)"><path d="M844 245.782C854.336 245.782 862.714 254.247 862.714 264.689 862.714 265.341 862.681 265.986 862.617 266.622L862.55 267.069 862.48 267.532 857.101 278.178 844 304.111 830.898 278.178 825.52 267.532 825.45 267.069 825.383 266.622C825.319 265.986 825.286 265.341 825.286 264.689 825.286 254.247 833.665 245.782 844 245.782Z" stroke="#C00000" stroke-width="3.15612" stroke-miterlimit="8" fill="none" fill-rule="evenodd"/><g clip-path="url(#clip0)"><g clip-path="url(#clip1)"><g clip-path="url(#clip2)"><path d="M23.7541 5.136 18.3505 10.5128C18.1901 10.6733 17.9493 10.6733 17.7888 10.5128 17.6283 10.3523 17.6283 10.1115 17.7888 9.95103L23.1923 4.54753 22.4433 3.79851 17.0398 9.20203C16.8793 9.36251 16.6385 9.36251 16.4781 9.20203 16.3175 9.04154 16.3175 8.80077 16.4781 8.64029L21.8816 3.23676 21.1326 2.48776 15.7023 7.86451C15.5418 8.02503 15.3011 8.02503 15.1405 7.86451 14.9801 7.70402 14.9801 7.46325 15.1405 7.30277L20.544 1.92601 20.0625 1.4445C20.0625 1.4445 16.8525 3.53101 14.6055 5.77803 13.2413 7.14228 12.7866 8.47976 12.9738 9.63002 12.9738 9.63002 13.2145 10.7 12.733 11.3153L1.92601 21.5071C1.31075 22.1223 1.31075 23.1388 1.92601 23.7808 2.54126 24.3961 3.55776 24.3961 4.19978 23.7808L14.3915 12.9738C15.0068 12.4923 16.0768 12.733 16.0768 12.733 17.2271 12.9203 18.5645 12.4655 19.9288 11.1013 21.9618 9.01477 24.2356 5.6175 24.2356 5.6175L23.7541 5.136Z" fill="#C00000" transform="matrix(0.711173 -0.711173 0.707107 0.707107 820.658 266.619)"/></g></g></g><g clip-path="url(#clip3)"><g clip-path="url(#clip4)"><g clip-path="url(#clip5)"><path d="M22.8981 2.75526C21.4536 1.284 17.5748 2.78201 15.3278 5.02902 13.9635 6.39328 13.5088 7.73076 13.696 8.88101 13.696 8.88101 13.9368 9.95103 13.4553 10.5663L2.64826 20.7581C2.03301 21.3733 2.03301 22.3898 2.64826 23.0318 3.26351 23.6471 4.28002 23.6471 4.92201 23.0318L15.1138 12.2248C15.7291 11.7433 16.799 11.984 16.799 11.984 17.9493 12.1713 19.2868 11.7165 20.6511 10.3523 22.8713 8.07854 24.3693 4.22651 22.8981 2.75526Z" fill="#C00000" transform="matrix(0.711173 -0.711173 0.707107 0.707107 830.921 267.673)"/></g></g></g></g></svg>