<svg width="1580" height="1580" xmlns="http://www.w3.org/2000/svg" xmlns:xlink="http://www.w3.org/1999/xlink" xml:space="preserve" overflow="hidden"><defs><clipPath id="clip0"><path d="M634.742 852.397 1085.61 401.53 1533.9 849.819 1083.03 1300.69Z" fill-rule="evenodd" clip-rule="evenodd"/></clipPath><clipPath id="clip1"><path d="M634.742 852.397 1085.61 401.53 1533.9 849.819 1083.03 1300.69Z" fill-rule="evenodd" clip-rule="evenodd"/></clipPath><clipPath id="clip2"><path d="M634.742 852.397 1085.61 401.53 1533.9 849.819 1083.03 1300.69Z" fill-rule="evenodd" clip-rule="evenodd"/></clipPath><clipPath id="clip3"><path d="M888.119 878.421 1338.99 427.553 1787.28 875.843 1336.41 1326.71Z" fill-rule="evenodd" clip-rule="evenodd"/></clipPath><clipPath id="clip4"><path d="M888.119 878.421 1338.99 427.553 1787.28 875.843 1336.41 1326.71Z" fill-rule="evenodd" clip-rule="evenodd"/></clipPath><clipPath id="clip5"><path d="M888.119 878.421 1338.99 427.553 1787.28 875.843 1336.41 1326.71Z" fill-rule="evenodd" clip-rule="evenodd"/></clipPath></defs><g transform="translate(-421 -294)"><path d="M1211 338C1466.16 338 1673 546.973 1673 804.754 1673 820.865 1672.19 836.786 1670.61 852.476L1668.95 863.514 1667.22 874.956 1534.44 1137.77 1211 1778 887.555 1137.77 754.781 874.958 753.052 863.514 751.385 852.476C749.808 836.786 749 820.865 749 804.754 749 546.973 955.844 338 1211 338Z" stroke="#C00000" stroke-width="77.9167" stroke-miterlimit="8" fill="none" fill-rule="evenodd"/><g clip-path="url(#clip0)"><g clip-path="url(#clip1)"><g clip-path="url(#clip2)"><path d="M586.429 126.795 453.029 259.534C449.067 263.497 443.123 263.497 439.161 259.534 435.199 255.572 435.199 249.628 439.161 245.666L572.56 112.267 554.069 93.7757 420.67 227.175C416.708 231.137 410.764 231.137 406.802 227.175 402.839 223.213 402.839 217.269 406.802 213.307L540.201 79.9075 521.71 61.4165 387.65 194.155C383.688 198.118 377.745 198.118 373.782 194.155 369.82 190.193 369.82 184.249 373.782 180.287L507.181 47.5483 495.294 35.6612C495.294 35.6612 416.047 87.1718 360.574 142.645 326.894 176.325 315.668 209.344 320.29 237.741 320.29 237.741 326.234 264.157 314.347 279.346L47.5483 530.956C32.3592 546.145 32.3592 571.24 47.5483 587.089 62.7373 602.278 87.8322 602.278 103.682 587.089L355.291 320.29C370.48 308.403 396.896 314.347 396.896 314.347 425.293 318.97 458.312 307.743 491.992 274.063 542.182 222.552 598.316 138.682 598.316 138.682L586.429 126.795Z" fill="#C00000" transform="matrix(0.711173 -0.711173 0.707107 0.707107 634.742 852.397)"/></g></g></g><g clip-path="url(#clip3)"><g clip-path="url(#clip4)"><g clip-path="url(#clip5)"><path d="M565.296 68.0204C529.635 31.6988 433.878 68.6808 378.405 124.154 344.725 157.834 333.498 190.853 338.121 219.25 338.121 219.25 344.064 245.666 332.177 260.855L65.3789 512.465C50.1898 527.654 50.1898 552.748 65.3789 568.598 80.5679 583.787 105.663 583.787 121.512 568.598L373.122 301.799C388.311 289.912 414.726 295.856 414.726 295.856 443.123 300.479 476.143 289.252 509.823 255.572 564.636 199.439 601.618 104.342 565.296 68.0204Z" fill="#C00000" transform="matrix(0.711173 -0.711173 0.707107 0.707107 888.119 878.421)"/></g></g></g></g></svg>