<svg xmlns="http://www.w3.org/2000/svg" width="64" height="64" fill="none" viewBox="0 0 64 64">
  <g clip-path="url(#a)">
    <path stroke="#fff" stroke-miterlimit="8" stroke-width="3.156" d="M40.342 3c10.336 0 18.714 8.465 18.714 18.907 0 .652-.033 1.297-.097 1.933l-.067.447-.07.463-5.379 10.646-13.101 25.933L27.24 35.396 21.862 24.75l-.07-.463-.067-.447a19.304 19.304 0 0 1-.097-1.933C21.628 11.465 30.007 3 40.342 3Z" clip-rule="evenodd"/>
    <mask id="b" width="37" height="37" x="17" y="5" maskUnits="userSpaceOnUse" style="mask-type:luminance">
      <path fill="#fff" fill-rule="evenodd" d="M17 23.837 35.263 5.574l18.158 18.158-18.263 18.263L17 23.837Z" clip-rule="evenodd"/>
    </mask>
    <g mask="url(#b)">
      <mask id="c" width="37" height="37" x="17" y="5" maskUnits="userSpaceOnUse" style="mask-type:luminance">
        <path fill="#fff" fill-rule="evenodd" d="M17 23.837 35.263 5.574l18.158 18.158-18.263 18.263L17 23.837Z" clip-rule="evenodd"/>
      </mask>
      <g mask="url(#c)">
        <mask id="d" width="37" height="37" x="17" y="5" maskUnits="userSpaceOnUse" style="mask-type:luminance">
          <path fill="#fff" fill-rule="evenodd" d="M17 23.837 35.263 5.574l18.158 18.158-18.263 18.263L17 23.837Z" clip-rule="evenodd"/>
        </mask>
        <g mask="url(#d)">
          <path fill="#fff" d="m37.525 10.575-.041 7.645a.392.392 0 0 1-.4.4.386.386 0 0 1-.397-.398l.022-7.663-1.062.003-.022 7.664a.392.392 0 0 1-.4.399.386.386 0 0 1-.397-.397l.022-7.664-1.062.003-.06 7.664a.392.392 0 0 1-.4.4.386.386 0 0 1-.397-.398l.041-7.645-.683.003s-.807 3.758-.816 6.945c-.006 1.934.617 3.204 1.563 3.884 0 0 .928.585 1.02 1.363l-.478 14.892c-.003.873.716 1.591 1.607 1.608.873-.003 1.596-.726 1.617-1.617l-.393-14.89c.097-.778 1.028-1.369 1.028-1.369.95-.685 1.58-1.958 1.586-3.893-.03-2.921-.815-6.94-.815-6.94l-.683.001Z"/>
        </g>
      </g>
    </g>
    <mask id="e" width="37" height="38" x="27" y="6" maskUnits="userSpaceOnUse" style="mask-type:luminance">
      <path fill="#fff" fill-rule="evenodd" d="M27.263 24.891 45.526 6.628l18.159 18.158-18.263 18.263-18.159-18.158Z" clip-rule="evenodd"/>
    </mask>
    <g mask="url(#e)">
      <mask id="f" width="37" height="38" x="27" y="6" maskUnits="userSpaceOnUse" style="mask-type:luminance">
        <path fill="#fff" fill-rule="evenodd" d="M27.263 24.891 45.526 6.628l18.159 18.158-18.263 18.263-18.159-18.158Z" clip-rule="evenodd"/>
      </mask>
      <g mask="url(#f)">
        <mask id="g" width="37" height="38" x="27" y="6" maskUnits="userSpaceOnUse" style="mask-type:luminance">
          <path fill="#fff" fill-rule="evenodd" d="M27.263 24.891 45.526 6.628l18.159 18.158-18.263 18.263-18.159-18.158Z" clip-rule="evenodd"/>
        </mask>
        <g mask="url(#g)">
          <path fill="#fff" d="M45.496 10.555c-2.068-.013-3.767 3.804-3.776 6.991-.006 1.935.617 3.204 1.563 3.885 0 0 .928.585 1.02 1.362l-.478 14.893c-.003.872.716 1.591 1.607 1.608.873-.003 1.596-.726 1.617-1.617l-.393-14.89c.097-.778 1.028-1.369 1.028-1.369.95-.686 1.58-1.958 1.586-3.893-.03-3.187-1.688-6.976-3.774-6.97Z"/>
        </g>
      </g>
    </g>
  </g>
  <defs>
    <clipPath id="a">
      <path fill="#fff" d="M0 0h64v64H0z"/>
    </clipPath>
  </defs>
</svg>
