<svg xmlns="http://www.w3.org/2000/svg" width="102" height="84" fill="none" viewBox="0 0 102 84">
  <path fill="#3F434A" fill-rule="evenodd" d="M62.573 25.06c0 5.444-5.112 9.966-11.573 9.966-6.46 0-11.573-4.522-11.573-9.966 0-5.444 5.112-9.966 11.573-9.966 6.46 0 11.573 4.522 11.573 9.966Zm7.65 0c0 9.201-8.606 16.66-19.223 16.66-10.617 0-19.223-7.459-19.223-16.66S40.383 8.4 51 8.4c10.617 0 19.223 7.459 19.223 16.66Zm-27.06 28.114h15.674c10.875 0 20.213 8.111 20.213 18.693 0 .43-.186.761-.418.973a.925.925 0 0 1-.64.266H24.008a.925.925 0 0 1-.639-.266 1.295 1.295 0 0 1-.418-.973c0-10.582 9.338-18.693 20.213-18.693ZM15.3 71.867c0-14.021 12.475-25.387 27.863-25.387h15.674c15.388 0 27.863 11.366 27.863 25.387 0 4.381-3.898 7.933-8.707 7.933H24.007c-4.809 0-8.707-3.552-8.707-7.933Z" clip-rule="evenodd"/>
</svg>
